<svg xmlns="http://www.w3.org/2000/svg" style="display:none">
    <symbol id="bluesky" viewBox="0 0 512 512"><path fill="currentColor" d="M111.8 62.2C170.2 105.9 233 194.7 256 242.4c23-47.6 85.8-136.4 144.2-180.2c42.1-31.6 110.3-56 110.3 21.8c0 15.5-8.9 130.5-14.1 149.2c-18.2 64.8-84.4 81.4-143.3 71.3C456 322 482.2 380 425.6 438c-107.4 110.2-154.3-27.6-166.3-62.9c-1.7-4.9-2.6-7.8-3.3-7.8s-1.6 3-3.3 7.8c-12 35.3-59 173.1-166.3 62.9c-56.5-58-30.4-116 72.5-133.5C100 314.6 33.8 298 15.7 233.1C10.4 214.4 1.5 99.4 1.5 83.9c0-77.8 68.2-53.4 110.3-21.8z"></path></symbol>
    <symbol id="linkedin" viewBox="0 0 448 512"><path fill="currentColor" d="M416 32H31.9C14.3 32 0 46.5 0 64.3v383.4C0 465.5 14.3 480 31.9 480H416c17.6 0 32-14.5 32-32.3V64.3c0-17.8-14.4-32.3-32-32.3M135.4 416H69V202.2h66.5V416zm-33.2-243c-21.3 0-38.5-17.3-38.5-38.5S80.9 96 102.2 96c21.2 0 38.5 17.3 38.5 38.5c0 21.3-17.2 38.5-38.5 38.5m282.1 243h-66.4V312c0-24.8-.5-56.7-34.5-56.7c-34.6 0-39.9 27-39.9 54.9V416h-66.4V202.2h63.7v29.2h.9c8.9-16.8 30.6-34.5 62.9-34.5c67.2 0 79.7 44.3 79.7 101.9z"></path></symbol>
    <symbol id="mastodon" viewBox="0 0 448 512"><path fill="currentColor" d="M433 179.11c0-97.2-63.71-125.7-63.71-125.7c-62.52-28.7-228.56-28.4-290.48 0c0 0-63.72 28.5-63.72 125.7c0 115.7-6.6 259.4 105.63 289.1c40.51 10.7 75.32 13 103.33 11.4c50.81-2.8 79.32-18.1 79.32-18.1l-1.7-36.9s-36.31 11.4-77.12 10.1c-40.41-1.4-83-4.4-89.63-54a102.5 102.5 0 0 1-.9-13.9c85.63 20.9 158.65 9.1 178.75 6.7c56.12-6.7 105-41.3 111.23-72.9c9.8-49.8 9-121.5 9-121.5m-75.12 125.2h-46.63v-114.2c0-49.7-64-51.6-64 6.9v62.5h-46.33V197c0-58.5-64-56.6-64-6.9v114.2H90.19c0-122.1-5.2-147.9 18.41-175c25.9-28.9 79.82-30.8 103.83 6.1l11.6 19.5l11.6-19.5c24.11-37.1 78.12-34.8 103.83-6.1c23.71 27.3 18.4 53 18.4 175z"></path></symbol>
    <symbol id="external-arrow" viewBox="0 0 24 24"><path fill="currentColor" d="m16 8.4-8.9 8.9q-.275.275-.7.275t-.7-.275-.275-.7.275-.7L14.6 7H7q-.425 0-.712-.288T6 6t.288-.712T7 5h10q.425 0 .713.288T18 6v10q0 .425-.288.713T17 17t-.712-.288T16 16z"></path></symbol>
</svg>