<svg viewBox="0 0 1200 630" xmlns="http://www.w3.org/2000/svg" xml:space="preserve" style="fill-rule:evenodd;clip-rule:evenodd;stroke-linejoin:round;stroke-miterlimit:2">
    <path d="M626.653 574.484a43.384 43.384 0 0 1 11.523 29.44c0 23.792-19.577 43.369-43.368 43.369-10.9 0-21.41-4.11-29.419-11.504L400 470.4 234.611 635.789a43.387 43.387 0 0 1-31.845 13.929c-23.792 0-43.369-19.577-43.369-43.369a43.389 43.389 0 0 1 13.95-31.865l165.39-165.389-165.39-165.306a43.387 43.387 0 0 1-13.95-31.865c0-23.791 19.577-43.368 43.369-43.368a43.39 43.39 0 0 1 31.845 13.928L400 347.832l165.389-165.39a43.382 43.382 0 0 1 29.419-11.503c23.791 0 43.368 19.577 43.368 43.368a43.38 43.38 0 0 1-11.523 29.44l-165.39 165.348 165.39 165.389Z" style="fill:#24d05a;fill-rule:nonzero" transform="matrix(.07937 0 0 .07898 1169.35 6.615)"/>
    <path d="M626.653 574.484a43.384 43.384 0 0 1 11.523 29.44c0 23.792-19.577 43.369-43.368 43.369-10.9 0-21.41-4.11-29.419-11.504L400 470.4 234.611 635.789a43.387 43.387 0 0 1-31.845 13.929c-23.792 0-43.369-19.577-43.369-43.369a43.389 43.389 0 0 1 13.95-31.865l165.39-165.389-165.39-165.306a43.387 43.387 0 0 1-13.95-31.865c0-23.791 19.577-43.368 43.369-43.368a43.39 43.39 0 0 1 31.845 13.928L400 347.832l165.389-165.39a43.382 43.382 0 0 1 29.419-11.503c23.791 0 43.368 19.577 43.368 43.368a43.38 43.38 0 0 1-11.523 29.44l-165.39 165.348 165.39 165.389Z" style="fill:#eaeef9;fill-rule:nonzero" transform="matrix(.07937 0 0 .07898 1009.35 6.615)"/>
    <path d="M626.653 574.484a43.384 43.384 0 0 1 11.523 29.44c0 23.792-19.577 43.369-43.368 43.369-10.9 0-21.41-4.11-29.419-11.504L400 470.4 234.611 635.789a43.387 43.387 0 0 1-31.845 13.929c-23.792 0-43.369-19.577-43.369-43.369a43.389 43.389 0 0 1 13.95-31.865l165.39-165.389-165.39-165.306a43.387 43.387 0 0 1-13.95-31.865c0-23.791 19.577-43.368 43.369-43.368a43.39 43.39 0 0 1 31.845 13.928L400 347.832l165.389-165.39a43.382 43.382 0 0 1 29.419-11.503c23.791 0 43.368 19.577 43.368 43.368a43.38 43.38 0 0 1-11.523 29.44l-165.39 165.348 165.39 165.389Z" style="fill:#10a2f5;fill-rule:nonzero" transform="matrix(.07937 0 0 .07898 849.352 6.615)"/>
    <path d="M626.653 574.484a43.384 43.384 0 0 1 11.523 29.44c0 23.792-19.577 43.369-43.368 43.369-10.9 0-21.41-4.11-29.419-11.504L400 470.4 234.611 635.789a43.387 43.387 0 0 1-31.845 13.929c-23.792 0-43.369-19.577-43.369-43.369a43.389 43.389 0 0 1 13.95-31.865l165.39-165.389-165.39-165.306a43.387 43.387 0 0 1-13.95-31.865c0-23.791 19.577-43.368 43.369-43.368a43.39 43.39 0 0 1 31.845 13.928L400 347.832l165.389-165.39a43.382 43.382 0 0 1 29.419-11.503c23.791 0 43.368 19.577 43.368 43.368a43.38 43.38 0 0 1-11.523 29.44l-165.39 165.348 165.39 165.389Z" style="fill:#96979c;fill-rule:nonzero" transform="matrix(.07937 0 0 .07898 689.352 6.615)"/>
    <path d="M626.653 574.484a43.384 43.384 0 0 1 11.523 29.44c0 23.792-19.577 43.369-43.368 43.369-10.9 0-21.41-4.11-29.419-11.504L400 470.4 234.611 635.789a43.387 43.387 0 0 1-31.845 13.929c-23.792 0-43.369-19.577-43.369-43.369a43.389 43.389 0 0 1 13.95-31.865l165.39-165.389-165.39-165.306a43.387 43.387 0 0 1-13.95-31.865c0-23.791 19.577-43.368 43.369-43.368a43.39 43.39 0 0 1 31.845 13.928L400 347.832l165.389-165.39a43.382 43.382 0 0 1 29.419-11.503c23.791 0 43.368 19.577 43.368 43.368a43.38 43.38 0 0 1-11.523 29.44l-165.39 165.348 165.39 165.389Z" style="fill:#e9bc3f;fill-rule:nonzero" transform="matrix(.07937 0 0 .07898 529.352 6.615)"/>
    <path d="M626.653 574.484a43.384 43.384 0 0 1 11.523 29.44c0 23.792-19.577 43.369-43.368 43.369-10.9 0-21.41-4.11-29.419-11.504L400 470.4 234.611 635.789a43.387 43.387 0 0 1-31.845 13.929c-23.792 0-43.369-19.577-43.369-43.369a43.389 43.389 0 0 1 13.95-31.865l165.39-165.389-165.39-165.306a43.387 43.387 0 0 1-13.95-31.865c0-23.791 19.577-43.368 43.369-43.368a43.39 43.39 0 0 1 31.845 13.928L400 347.832l165.389-165.39a43.382 43.382 0 0 1 29.419-11.503c23.791 0 43.368 19.577 43.368 43.368a43.38 43.38 0 0 1-11.523 29.44l-165.39 165.348 165.39 165.389Z" style="fill:#eb4888;fill-rule:nonzero" transform="matrix(.07937 0 0 .07898 369.352 6.615)"/>
    <path d="M626.653 574.484a43.384 43.384 0 0 1 11.523 29.44c0 23.792-19.577 43.369-43.368 43.369-10.9 0-21.41-4.11-29.419-11.504L400 470.4 234.611 635.789a43.387 43.387 0 0 1-31.845 13.929c-23.792 0-43.369-19.577-43.369-43.369a43.389 43.389 0 0 1 13.95-31.865l165.39-165.389-165.39-165.306a43.387 43.387 0 0 1-13.95-31.865c0-23.791 19.577-43.368 43.369-43.368a43.39 43.39 0 0 1 31.845 13.928L400 347.832l165.389-165.39a43.382 43.382 0 0 1 29.419-11.503c23.791 0 43.368 19.577 43.368 43.368a43.38 43.38 0 0 1-11.523 29.44l-165.39 165.348 165.39 165.389Z" style="fill:#24d05a;fill-rule:nonzero" transform="matrix(.07937 0 0 .07898 209.352 6.615)"/>
    <path d="M626.653 574.484a43.384 43.384 0 0 1 11.523 29.44c0 23.792-19.577 43.369-43.368 43.369-10.9 0-21.41-4.11-29.419-11.504L400 470.4 234.611 635.789a43.387 43.387 0 0 1-31.845 13.929c-23.792 0-43.369-19.577-43.369-43.369a43.389 43.389 0 0 1 13.95-31.865l165.39-165.389-165.39-165.306a43.387 43.387 0 0 1-13.95-31.865c0-23.791 19.577-43.368 43.369-43.368a43.39 43.39 0 0 1 31.845 13.928L400 347.832l165.389-165.39a43.382 43.382 0 0 1 29.419-11.503c23.791 0 43.368 19.577 43.368 43.368a43.38 43.38 0 0 1-11.523 29.44l-165.39 165.348 165.39 165.389Z" style="fill:#eaeef9;fill-rule:nonzero" transform="matrix(.07937 0 0 .07898 49.352 6.615)"/>
    <path d="M626.653 574.484a43.384 43.384 0 0 1 11.523 29.44c0 23.792-19.577 43.369-43.368 43.369-10.9 0-21.41-4.11-29.419-11.504L400 470.4 234.611 635.789a43.387 43.387 0 0 1-31.845 13.929c-23.792 0-43.369-19.577-43.369-43.369a43.389 43.389 0 0 1 13.95-31.865l165.39-165.389-165.39-165.306a43.387 43.387 0 0 1-13.95-31.865c0-23.791 19.577-43.368 43.369-43.368a43.39 43.39 0 0 1 31.845 13.928L400 347.832l165.389-165.39a43.382 43.382 0 0 1 29.419-11.503c23.791 0 43.368 19.577 43.368 43.368a43.38 43.38 0 0 1-11.523 29.44l-165.39 165.348 165.39 165.389Z" style="fill:#e9bc3f;fill-rule:nonzero" transform="matrix(.07937 0 0 .07898 -30.648 86.615)"/>
    <path d="M626.653 574.484a43.384 43.384 0 0 1 11.523 29.44c0 23.792-19.577 43.369-43.368 43.369-10.9 0-21.41-4.11-29.419-11.504L400 470.4 234.611 635.789a43.387 43.387 0 0 1-31.845 13.929c-23.792 0-43.369-19.577-43.369-43.369a43.389 43.389 0 0 1 13.95-31.865l165.39-165.389-165.39-165.306a43.387 43.387 0 0 1-13.95-31.865c0-23.791 19.577-43.368 43.369-43.368a43.39 43.39 0 0 1 31.845 13.928L400 347.832l165.389-165.39a43.382 43.382 0 0 1 29.419-11.503c23.791 0 43.368 19.577 43.368 43.368a43.38 43.38 0 0 1-11.523 29.44l-165.39 165.348 165.39 165.389Z" style="fill:#96979c;fill-rule:nonzero" transform="matrix(.07937 0 0 .07898 129.352 86.615)"/>
    <path d="M626.653 574.484a43.384 43.384 0 0 1 11.523 29.44c0 23.792-19.577 43.369-43.368 43.369-10.9 0-21.41-4.11-29.419-11.504L400 470.4 234.611 635.789a43.387 43.387 0 0 1-31.845 13.929c-23.792 0-43.369-19.577-43.369-43.369a43.389 43.389 0 0 1 13.95-31.865l165.39-165.389-165.39-165.306a43.387 43.387 0 0 1-13.95-31.865c0-23.791 19.577-43.368 43.369-43.368a43.39 43.39 0 0 1 31.845 13.928L400 347.832l165.389-165.39a43.382 43.382 0 0 1 29.419-11.503c23.791 0 43.368 19.577 43.368 43.368a43.38 43.38 0 0 1-11.523 29.44l-165.39 165.348 165.39 165.389Z" style="fill:#10a2f5;fill-rule:nonzero" transform="matrix(.07937 0 0 .07898 289.352 86.615)"/>
    <path d="M626.653 574.484a43.384 43.384 0 0 1 11.523 29.44c0 23.792-19.577 43.369-43.368 43.369-10.9 0-21.41-4.11-29.419-11.504L400 470.4 234.611 635.789a43.387 43.387 0 0 1-31.845 13.929c-23.792 0-43.369-19.577-43.369-43.369a43.389 43.389 0 0 1 13.95-31.865l165.39-165.389-165.39-165.306a43.387 43.387 0 0 1-13.95-31.865c0-23.791 19.577-43.368 43.369-43.368a43.39 43.39 0 0 1 31.845 13.928L400 347.832l165.389-165.39a43.382 43.382 0 0 1 29.419-11.503c23.791 0 43.368 19.577 43.368 43.368a43.38 43.38 0 0 1-11.523 29.44l-165.39 165.348 165.39 165.389Z" style="fill:#96979c;fill-rule:nonzero" transform="matrix(.07937 0 0 .07898 1089.352 86.615)"/>
    <path d="M626.653 574.484a43.384 43.384 0 0 1 11.523 29.44c0 23.792-19.577 43.369-43.368 43.369-10.9 0-21.41-4.11-29.419-11.504L400 470.4 234.611 635.789a43.387 43.387 0 0 1-31.845 13.929c-23.792 0-43.369-19.577-43.369-43.369a43.389 43.389 0 0 1 13.95-31.865l165.39-165.389-165.39-165.306a43.387 43.387 0 0 1-13.95-31.865c0-23.791 19.577-43.368 43.369-43.368a43.39 43.39 0 0 1 31.845 13.928L400 347.832l165.389-165.39a43.382 43.382 0 0 1 29.419-11.503c23.791 0 43.368 19.577 43.368 43.368a43.38 43.38 0 0 1-11.523 29.44l-165.39 165.348 165.39 165.389Z" style="fill:#e9bc3f;fill-rule:nonzero" transform="matrix(.07937 0 0 .07898 929.352 86.615)"/>
    <path d="M626.653 574.484a43.384 43.384 0 0 1 11.523 29.44c0 23.792-19.577 43.369-43.368 43.369-10.9 0-21.41-4.11-29.419-11.504L400 470.4 234.611 635.789a43.387 43.387 0 0 1-31.845 13.929c-23.792 0-43.369-19.577-43.369-43.369a43.389 43.389 0 0 1 13.95-31.865l165.39-165.389-165.39-165.306a43.387 43.387 0 0 1-13.95-31.865c0-23.791 19.577-43.368 43.369-43.368a43.39 43.39 0 0 1 31.845 13.928L400 347.832l165.389-165.39a43.382 43.382 0 0 1 29.419-11.503c23.791 0 43.368 19.577 43.368 43.368a43.38 43.38 0 0 1-11.523 29.44l-165.39 165.348 165.39 165.389Z" style="fill:#eb4888;fill-rule:nonzero" transform="matrix(.07937 0 0 .07898 769.352 86.615)"/>
    <path d="M626.653 574.484a43.384 43.384 0 0 1 11.523 29.44c0 23.792-19.577 43.369-43.368 43.369-10.9 0-21.41-4.11-29.419-11.504L400 470.4 234.611 635.789a43.387 43.387 0 0 1-31.845 13.929c-23.792 0-43.369-19.577-43.369-43.369a43.389 43.389 0 0 1 13.95-31.865l165.39-165.389-165.39-165.306a43.387 43.387 0 0 1-13.95-31.865c0-23.791 19.577-43.368 43.369-43.368a43.39 43.39 0 0 1 31.845 13.928L400 347.832l165.389-165.39a43.382 43.382 0 0 1 29.419-11.503c23.791 0 43.368 19.577 43.368 43.368a43.38 43.38 0 0 1-11.523 29.44l-165.39 165.348 165.39 165.389Z" style="fill:#24d05a;fill-rule:nonzero" transform="matrix(.07937 0 0 .07898 609.352 86.615)"/>
    <path d="M626.653 574.484a43.384 43.384 0 0 1 11.523 29.44c0 23.792-19.577 43.369-43.368 43.369-10.9 0-21.41-4.11-29.419-11.504L400 470.4 234.611 635.789a43.387 43.387 0 0 1-31.845 13.929c-23.792 0-43.369-19.577-43.369-43.369a43.389 43.389 0 0 1 13.95-31.865l165.39-165.389-165.39-165.306a43.387 43.387 0 0 1-13.95-31.865c0-23.791 19.577-43.368 43.369-43.368a43.39 43.39 0 0 1 31.845 13.928L400 347.832l165.389-165.39a43.382 43.382 0 0 1 29.419-11.503c23.791 0 43.368 19.577 43.368 43.368a43.38 43.38 0 0 1-11.523 29.44l-165.39 165.348 165.39 165.389Z" style="fill:#eaeef9;fill-rule:nonzero" transform="matrix(.07937 0 0 .07898 449.352 86.615)"/>
    <path d="M626.653 574.484a43.384 43.384 0 0 1 11.523 29.44c0 23.792-19.577 43.369-43.368 43.369-10.9 0-21.41-4.11-29.419-11.504L400 470.4 234.611 635.789a43.387 43.387 0 0 1-31.845 13.929c-23.792 0-43.369-19.577-43.369-43.369a43.389 43.389 0 0 1 13.95-31.865l165.39-165.389-165.39-165.306a43.387 43.387 0 0 1-13.95-31.865c0-23.791 19.577-43.368 43.369-43.368a43.39 43.39 0 0 1 31.845 13.928L400 347.832l165.389-165.39a43.382 43.382 0 0 1 29.419-11.503c23.791 0 43.368 19.577 43.368 43.368a43.38 43.38 0 0 1-11.523 29.44l-165.39 165.348 165.39 165.389Z" style="fill:#24d05a;fill-rule:nonzero" transform="matrix(.07937 0 0 .07898 849.35 166.615)"/>
    <path d="M626.653 574.484a43.384 43.384 0 0 1 11.523 29.44c0 23.792-19.577 43.369-43.368 43.369-10.9 0-21.41-4.11-29.419-11.504L400 470.4 234.611 635.789a43.387 43.387 0 0 1-31.845 13.929c-23.792 0-43.369-19.577-43.369-43.369a43.389 43.389 0 0 1 13.95-31.865l165.39-165.389-165.39-165.306a43.387 43.387 0 0 1-13.95-31.865c0-23.791 19.577-43.368 43.369-43.368a43.39 43.39 0 0 1 31.845 13.928L400 347.832l165.389-165.39a43.382 43.382 0 0 1 29.419-11.503c23.791 0 43.368 19.577 43.368 43.368a43.38 43.38 0 0 1-11.523 29.44l-165.39 165.348 165.39 165.389Z" style="fill:#eaeef9;fill-rule:nonzero" transform="matrix(.07937 0 0 .07898 689.35 166.615)"/>
    <path d="M626.653 574.484a43.384 43.384 0 0 1 11.523 29.44c0 23.792-19.577 43.369-43.368 43.369-10.9 0-21.41-4.11-29.419-11.504L400 470.4 234.611 635.789a43.387 43.387 0 0 1-31.845 13.929c-23.792 0-43.369-19.577-43.369-43.369a43.389 43.389 0 0 1 13.95-31.865l165.39-165.389-165.39-165.306a43.387 43.387 0 0 1-13.95-31.865c0-23.791 19.577-43.368 43.369-43.368a43.39 43.39 0 0 1 31.845 13.928L400 347.832l165.389-165.39a43.382 43.382 0 0 1 29.419-11.503c23.791 0 43.368 19.577 43.368 43.368a43.38 43.38 0 0 1-11.523 29.44l-165.39 165.348 165.39 165.389Z" style="fill:#10a2f5;fill-rule:nonzero" transform="matrix(.07937 0 0 .07898 529.352 166.615)"/>
    <path d="M626.653 574.484a43.384 43.384 0 0 1 11.523 29.44c0 23.792-19.577 43.369-43.368 43.369-10.9 0-21.41-4.11-29.419-11.504L400 470.4 234.611 635.789a43.387 43.387 0 0 1-31.845 13.929c-23.792 0-43.369-19.577-43.369-43.369a43.389 43.389 0 0 1 13.95-31.865l165.39-165.389-165.39-165.306a43.387 43.387 0 0 1-13.95-31.865c0-23.791 19.577-43.368 43.369-43.368a43.39 43.39 0 0 1 31.845 13.928L400 347.832l165.389-165.39a43.382 43.382 0 0 1 29.419-11.503c23.791 0 43.368 19.577 43.368 43.368a43.38 43.38 0 0 1-11.523 29.44l-165.39 165.348 165.39 165.389Z" style="fill:#96979c;fill-rule:nonzero" transform="matrix(.07937 0 0 .07898 369.352 166.615)"/>
    <path d="M626.653 574.484a43.384 43.384 0 0 1 11.523 29.44c0 23.792-19.577 43.369-43.368 43.369-10.9 0-21.41-4.11-29.419-11.504L400 470.4 234.611 635.789a43.387 43.387 0 0 1-31.845 13.929c-23.792 0-43.369-19.577-43.369-43.369a43.389 43.389 0 0 1 13.95-31.865l165.39-165.389-165.39-165.306a43.387 43.387 0 0 1-13.95-31.865c0-23.791 19.577-43.368 43.369-43.368a43.39 43.39 0 0 1 31.845 13.928L400 347.832l165.389-165.39a43.382 43.382 0 0 1 29.419-11.503c23.791 0 43.368 19.577 43.368 43.368a43.38 43.38 0 0 1-11.523 29.44l-165.39 165.348 165.39 165.389Z" style="fill:#e9bc3f;fill-rule:nonzero" transform="matrix(.07937 0 0 .07898 209.352 166.615)"/>
    <path d="M626.653 574.484a43.384 43.384 0 0 1 11.523 29.44c0 23.792-19.577 43.369-43.368 43.369-10.9 0-21.41-4.11-29.419-11.504L400 470.4 234.611 635.789a43.387 43.387 0 0 1-31.845 13.929c-23.792 0-43.369-19.577-43.369-43.369a43.389 43.389 0 0 1 13.95-31.865l165.39-165.389-165.39-165.306a43.387 43.387 0 0 1-13.95-31.865c0-23.791 19.577-43.368 43.369-43.368a43.39 43.39 0 0 1 31.845 13.928L400 347.832l165.389-165.39a43.382 43.382 0 0 1 29.419-11.503c23.791 0 43.368 19.577 43.368 43.368a43.38 43.38 0 0 1-11.523 29.44l-165.39 165.348 165.39 165.389Z" style="fill:#eb4888;fill-rule:nonzero" transform="matrix(.07937 0 0 .07898 49.352 166.615)"/>
    <path d="M626.653 574.484a43.384 43.384 0 0 1 11.523 29.44c0 23.792-19.577 43.369-43.368 43.369-10.9 0-21.41-4.11-29.419-11.504L400 470.4 234.611 635.789a43.387 43.387 0 0 1-31.845 13.929c-23.792 0-43.369-19.577-43.369-43.369a43.389 43.389 0 0 1 13.95-31.865l165.39-165.389-165.39-165.306a43.387 43.387 0 0 1-13.95-31.865c0-23.791 19.577-43.368 43.369-43.368a43.39 43.39 0 0 1 31.845 13.928L400 347.832l165.389-165.39a43.382 43.382 0 0 1 29.419-11.503c23.791 0 43.368 19.577 43.368 43.368a43.38 43.38 0 0 1-11.523 29.44l-165.39 165.348 165.39 165.389Z" style="fill:#e9bc3f;fill-rule:nonzero" transform="matrix(.07937 0 0 .07898 1169.35 166.615)"/>
    <path d="M626.653 574.484a43.384 43.384 0 0 1 11.523 29.44c0 23.792-19.577 43.369-43.368 43.369-10.9 0-21.41-4.11-29.419-11.504L400 470.4 234.611 635.789a43.387 43.387 0 0 1-31.845 13.929c-23.792 0-43.369-19.577-43.369-43.369a43.389 43.389 0 0 1 13.95-31.865l165.39-165.389-165.39-165.306a43.387 43.387 0 0 1-13.95-31.865c0-23.791 19.577-43.368 43.369-43.368a43.39 43.39 0 0 1 31.845 13.928L400 347.832l165.389-165.39a43.382 43.382 0 0 1 29.419-11.503c23.791 0 43.368 19.577 43.368 43.368a43.38 43.38 0 0 1-11.523 29.44l-165.39 165.348 165.39 165.389Z" style="fill:#eb4888;fill-rule:nonzero" transform="matrix(.07937 0 0 .07898 1009.35 166.615)"/>
    <path d="M626.653 574.484a43.384 43.384 0 0 1 11.523 29.44c0 23.792-19.577 43.369-43.368 43.369-10.9 0-21.41-4.11-29.419-11.504L400 470.4 234.611 635.789a43.387 43.387 0 0 1-31.845 13.929c-23.792 0-43.369-19.577-43.369-43.369a43.389 43.389 0 0 1 13.95-31.865l165.39-165.389-165.39-165.306a43.387 43.387 0 0 1-13.95-31.865c0-23.791 19.577-43.368 43.369-43.368a43.39 43.39 0 0 1 31.845 13.928L400 347.832l165.389-165.39a43.382 43.382 0 0 1 29.419-11.503c23.791 0 43.368 19.577 43.368 43.368a43.38 43.38 0 0 1-11.523 29.44l-165.39 165.348 165.39 165.389Z" style="fill:#10a2f5;fill-rule:nonzero" transform="matrix(.07937 0 0 .07898 929.352 246.615)"/>
    <path d="M626.653 574.484a43.384 43.384 0 0 1 11.523 29.44c0 23.792-19.577 43.369-43.368 43.369-10.9 0-21.41-4.11-29.419-11.504L400 470.4 234.611 635.789a43.387 43.387 0 0 1-31.845 13.929c-23.792 0-43.369-19.577-43.369-43.369a43.389 43.389 0 0 1 13.95-31.865l165.39-165.389-165.39-165.306a43.387 43.387 0 0 1-13.95-31.865c0-23.791 19.577-43.368 43.369-43.368a43.39 43.39 0 0 1 31.845 13.928L400 347.832l165.389-165.39a43.382 43.382 0 0 1 29.419-11.503c23.791 0 43.368 19.577 43.368 43.368a43.38 43.38 0 0 1-11.523 29.44l-165.39 165.348 165.39 165.389Z" style="fill:#eaeef9;fill-rule:nonzero" transform="matrix(.07937 0 0 .07898 1089.35 246.615)"/>
    <path d="M626.653 574.484a43.384 43.384 0 0 1 11.523 29.44c0 23.792-19.577 43.369-43.368 43.369-10.9 0-21.41-4.11-29.419-11.504L400 470.4 234.611 635.789a43.387 43.387 0 0 1-31.845 13.929c-23.792 0-43.369-19.577-43.369-43.369a43.389 43.389 0 0 1 13.95-31.865l165.39-165.389-165.39-165.306a43.387 43.387 0 0 1-13.95-31.865c0-23.791 19.577-43.368 43.369-43.368a43.39 43.39 0 0 1 31.845 13.928L400 347.832l165.389-165.39a43.382 43.382 0 0 1 29.419-11.503c23.791 0 43.368 19.577 43.368 43.368a43.38 43.38 0 0 1-11.523 29.44l-165.39 165.348 165.39 165.389Z" style="fill:#10a2f5;fill-rule:nonzero" transform="matrix(.07937 0 0 .07898 -30.648 246.615)"/>
    <path d="M626.653 574.484a43.384 43.384 0 0 1 11.523 29.44c0 23.792-19.577 43.369-43.368 43.369-10.9 0-21.41-4.11-29.419-11.504L400 470.4 234.611 635.789a43.387 43.387 0 0 1-31.845 13.929c-23.792 0-43.369-19.577-43.369-43.369a43.389 43.389 0 0 1 13.95-31.865l165.39-165.389-165.39-165.306a43.387 43.387 0 0 1-13.95-31.865c0-23.791 19.577-43.368 43.369-43.368a43.39 43.39 0 0 1 31.845 13.928L400 347.832l165.389-165.39a43.382 43.382 0 0 1 29.419-11.503c23.791 0 43.368 19.577 43.368 43.368a43.38 43.38 0 0 1-11.523 29.44l-165.39 165.348 165.39 165.389Z" style="fill:#96979c;fill-rule:nonzero" transform="matrix(.07937 0 0 .07898 769.352 246.615)"/>
    <path d="M626.653 574.484a43.384 43.384 0 0 1 11.523 29.44c0 23.792-19.577 43.369-43.368 43.369-10.9 0-21.41-4.11-29.419-11.504L400 470.4 234.611 635.789a43.387 43.387 0 0 1-31.845 13.929c-23.792 0-43.369-19.577-43.369-43.369a43.389 43.389 0 0 1 13.95-31.865l165.39-165.389-165.39-165.306a43.387 43.387 0 0 1-13.95-31.865c0-23.791 19.577-43.368 43.369-43.368a43.39 43.39 0 0 1 31.845 13.928L400 347.832l165.389-165.39a43.382 43.382 0 0 1 29.419-11.503c23.791 0 43.368 19.577 43.368 43.368a43.38 43.38 0 0 1-11.523 29.44l-165.39 165.348 165.39 165.389Z" style="fill:#e9bc3f;fill-rule:nonzero" transform="matrix(.07937 0 0 .07898 609.352 246.615)"/>
    <path d="M626.653 574.484a43.384 43.384 0 0 1 11.523 29.44c0 23.792-19.577 43.369-43.368 43.369-10.9 0-21.41-4.11-29.419-11.504L400 470.4 234.611 635.789a43.387 43.387 0 0 1-31.845 13.929c-23.792 0-43.369-19.577-43.369-43.369a43.389 43.389 0 0 1 13.95-31.865l165.39-165.389-165.39-165.306a43.387 43.387 0 0 1-13.95-31.865c0-23.791 19.577-43.368 43.369-43.368a43.39 43.39 0 0 1 31.845 13.928L400 347.832l165.389-165.39a43.382 43.382 0 0 1 29.419-11.503c23.791 0 43.368 19.577 43.368 43.368a43.38 43.38 0 0 1-11.523 29.44l-165.39 165.348 165.39 165.389Z" style="fill:#eb4888;fill-rule:nonzero" transform="matrix(.07937 0 0 .07898 449.352 246.615)"/>
    <path d="M626.653 574.484a43.384 43.384 0 0 1 11.523 29.44c0 23.792-19.577 43.369-43.368 43.369-10.9 0-21.41-4.11-29.419-11.504L400 470.4 234.611 635.789a43.387 43.387 0 0 1-31.845 13.929c-23.792 0-43.369-19.577-43.369-43.369a43.389 43.389 0 0 1 13.95-31.865l165.39-165.389-165.39-165.306a43.387 43.387 0 0 1-13.95-31.865c0-23.791 19.577-43.368 43.369-43.368a43.39 43.39 0 0 1 31.845 13.928L400 347.832l165.389-165.39a43.382 43.382 0 0 1 29.419-11.503c23.791 0 43.368 19.577 43.368 43.368a43.38 43.38 0 0 1-11.523 29.44l-165.39 165.348 165.39 165.389Z" style="fill:#24d05a;fill-rule:nonzero" transform="matrix(.07937 0 0 .07898 289.352 246.615)"/>
    <path d="M626.653 574.484a43.384 43.384 0 0 1 11.523 29.44c0 23.792-19.577 43.369-43.368 43.369-10.9 0-21.41-4.11-29.419-11.504L400 470.4 234.611 635.789a43.387 43.387 0 0 1-31.845 13.929c-23.792 0-43.369-19.577-43.369-43.369a43.389 43.389 0 0 1 13.95-31.865l165.39-165.389-165.39-165.306a43.387 43.387 0 0 1-13.95-31.865c0-23.791 19.577-43.368 43.369-43.368a43.39 43.39 0 0 1 31.845 13.928L400 347.832l165.389-165.39a43.382 43.382 0 0 1 29.419-11.503c23.791 0 43.368 19.577 43.368 43.368a43.38 43.38 0 0 1-11.523 29.44l-165.39 165.348 165.39 165.389Z" style="fill:#eaeef9;fill-rule:nonzero" transform="matrix(.07937 0 0 .07898 129.352 246.615)"/>
    <path d="M626.653 574.484a43.384 43.384 0 0 1 11.523 29.44c0 23.792-19.577 43.369-43.368 43.369-10.9 0-21.41-4.11-29.419-11.504L400 470.4 234.611 635.789a43.387 43.387 0 0 1-31.845 13.929c-23.792 0-43.369-19.577-43.369-43.369a43.389 43.389 0 0 1 13.95-31.865l165.39-165.389-165.39-165.306a43.387 43.387 0 0 1-13.95-31.865c0-23.791 19.577-43.368 43.369-43.368a43.39 43.39 0 0 1 31.845 13.928L400 347.832l165.389-165.39a43.382 43.382 0 0 1 29.419-11.503c23.791 0 43.368 19.577 43.368 43.368a43.38 43.38 0 0 1-11.523 29.44l-165.39 165.348 165.39 165.389Z" style="fill:#10a2f5;fill-rule:nonzero" transform="matrix(.07937 0 0 .07898 1169.35 326.615)"/>
    <path d="M626.653 574.484a43.384 43.384 0 0 1 11.523 29.44c0 23.792-19.577 43.369-43.368 43.369-10.9 0-21.41-4.11-29.419-11.504L400 470.4 234.611 635.789a43.387 43.387 0 0 1-31.845 13.929c-23.792 0-43.369-19.577-43.369-43.369a43.389 43.389 0 0 1 13.95-31.865l165.39-165.389-165.39-165.306a43.387 43.387 0 0 1-13.95-31.865c0-23.791 19.577-43.368 43.369-43.368a43.39 43.39 0 0 1 31.845 13.928L400 347.832l165.389-165.39a43.382 43.382 0 0 1 29.419-11.503c23.791 0 43.368 19.577 43.368 43.368a43.38 43.38 0 0 1-11.523 29.44l-165.39 165.348 165.39 165.389Z" style="fill:#96979c;fill-rule:nonzero" transform="matrix(.07937 0 0 .07898 1009.35 326.615)"/>
    <path d="M626.653 574.484a43.384 43.384 0 0 1 11.523 29.44c0 23.792-19.577 43.369-43.368 43.369-10.9 0-21.41-4.11-29.419-11.504L400 470.4 234.611 635.789a43.387 43.387 0 0 1-31.845 13.929c-23.792 0-43.369-19.577-43.369-43.369a43.389 43.389 0 0 1 13.95-31.865l165.39-165.389-165.39-165.306a43.387 43.387 0 0 1-13.95-31.865c0-23.791 19.577-43.368 43.369-43.368a43.39 43.39 0 0 1 31.845 13.928L400 347.832l165.389-165.39a43.382 43.382 0 0 1 29.419-11.503c23.791 0 43.368 19.577 43.368 43.368a43.38 43.38 0 0 1-11.523 29.44l-165.39 165.348 165.39 165.389Z" style="fill:#e9bc3f;fill-rule:nonzero" transform="matrix(.07937 0 0 .07898 849.352 326.615)"/>
    <path d="M626.653 574.484a43.384 43.384 0 0 1 11.523 29.44c0 23.792-19.577 43.369-43.368 43.369-10.9 0-21.41-4.11-29.419-11.504L400 470.4 234.611 635.789a43.387 43.387 0 0 1-31.845 13.929c-23.792 0-43.369-19.577-43.369-43.369a43.389 43.389 0 0 1 13.95-31.865l165.39-165.389-165.39-165.306a43.387 43.387 0 0 1-13.95-31.865c0-23.791 19.577-43.368 43.369-43.368a43.39 43.39 0 0 1 31.845 13.928L400 347.832l165.389-165.39a43.382 43.382 0 0 1 29.419-11.503c23.791 0 43.368 19.577 43.368 43.368a43.38 43.38 0 0 1-11.523 29.44l-165.39 165.348 165.39 165.389Z" style="fill:#eb4888;fill-rule:nonzero" transform="matrix(.07937 0 0 .07898 689.352 326.615)"/>
    <path d="M626.653 574.484a43.384 43.384 0 0 1 11.523 29.44c0 23.792-19.577 43.369-43.368 43.369-10.9 0-21.41-4.11-29.419-11.504L400 470.4 234.611 635.789a43.387 43.387 0 0 1-31.845 13.929c-23.792 0-43.369-19.577-43.369-43.369a43.389 43.389 0 0 1 13.95-31.865l165.39-165.389-165.39-165.306a43.387 43.387 0 0 1-13.95-31.865c0-23.791 19.577-43.368 43.369-43.368a43.39 43.39 0 0 1 31.845 13.928L400 347.832l165.389-165.39a43.382 43.382 0 0 1 29.419-11.503c23.791 0 43.368 19.577 43.368 43.368a43.38 43.38 0 0 1-11.523 29.44l-165.39 165.348 165.39 165.389Z" style="fill:#24d05a;fill-rule:nonzero" transform="matrix(.07937 0 0 .07898 529.352 326.615)"/>
    <path d="M626.653 574.484a43.384 43.384 0 0 1 11.523 29.44c0 23.792-19.577 43.369-43.368 43.369-10.9 0-21.41-4.11-29.419-11.504L400 470.4 234.611 635.789a43.387 43.387 0 0 1-31.845 13.929c-23.792 0-43.369-19.577-43.369-43.369a43.389 43.389 0 0 1 13.95-31.865l165.39-165.389-165.39-165.306a43.387 43.387 0 0 1-13.95-31.865c0-23.791 19.577-43.368 43.369-43.368a43.39 43.39 0 0 1 31.845 13.928L400 347.832l165.389-165.39a43.382 43.382 0 0 1 29.419-11.503c23.791 0 43.368 19.577 43.368 43.368a43.38 43.38 0 0 1-11.523 29.44l-165.39 165.348 165.39 165.389Z" style="fill:#eaeef9;fill-rule:nonzero" transform="matrix(.07937 0 0 .07898 369.352 326.615)"/>
    <path d="M626.653 574.484a43.384 43.384 0 0 1 11.523 29.44c0 23.792-19.577 43.369-43.368 43.369-10.9 0-21.41-4.11-29.419-11.504L400 470.4 234.611 635.789a43.387 43.387 0 0 1-31.845 13.929c-23.792 0-43.369-19.577-43.369-43.369a43.389 43.389 0 0 1 13.95-31.865l165.39-165.389-165.39-165.306a43.387 43.387 0 0 1-13.95-31.865c0-23.791 19.577-43.368 43.369-43.368a43.39 43.39 0 0 1 31.845 13.928L400 347.832l165.389-165.39a43.382 43.382 0 0 1 29.419-11.503c23.791 0 43.368 19.577 43.368 43.368a43.38 43.38 0 0 1-11.523 29.44l-165.39 165.348 165.39 165.389Z" style="fill:#e9bc3f;fill-rule:nonzero" transform="matrix(.07937 0 0 .07898 289.352 406.615)"/>
    <path d="M626.653 574.484a43.384 43.384 0 0 1 11.523 29.44c0 23.792-19.577 43.369-43.368 43.369-10.9 0-21.41-4.11-29.419-11.504L400 470.4 234.611 635.789a43.387 43.387 0 0 1-31.845 13.929c-23.792 0-43.369-19.577-43.369-43.369a43.389 43.389 0 0 1 13.95-31.865l165.39-165.389-165.39-165.306a43.387 43.387 0 0 1-13.95-31.865c0-23.791 19.577-43.368 43.369-43.368a43.39 43.39 0 0 1 31.845 13.928L400 347.832l165.389-165.39a43.382 43.382 0 0 1 29.419-11.503c23.791 0 43.368 19.577 43.368 43.368a43.38 43.38 0 0 1-11.523 29.44l-165.39 165.348 165.39 165.389Z" style="fill:#96979c;fill-rule:nonzero" transform="matrix(.07937 0 0 .07898 449.352 406.615)"/>
    <path d="M626.653 574.484a43.384 43.384 0 0 1 11.523 29.44c0 23.792-19.577 43.369-43.368 43.369-10.9 0-21.41-4.11-29.419-11.504L400 470.4 234.611 635.789a43.387 43.387 0 0 1-31.845 13.929c-23.792 0-43.369-19.577-43.369-43.369a43.389 43.389 0 0 1 13.95-31.865l165.39-165.389-165.39-165.306a43.387 43.387 0 0 1-13.95-31.865c0-23.791 19.577-43.368 43.369-43.368a43.39 43.39 0 0 1 31.845 13.928L400 347.832l165.389-165.39a43.382 43.382 0 0 1 29.419-11.503c23.791 0 43.368 19.577 43.368 43.368a43.38 43.38 0 0 1-11.523 29.44l-165.39 165.348 165.39 165.389Z" style="fill:#10a2f5;fill-rule:nonzero" transform="matrix(.07937 0 0 .07898 609.352 406.615)"/>
    <path d="M626.653 574.484a43.384 43.384 0 0 1 11.523 29.44c0 23.792-19.577 43.369-43.368 43.369-10.9 0-21.41-4.11-29.419-11.504L400 470.4 234.611 635.789a43.387 43.387 0 0 1-31.845 13.929c-23.792 0-43.369-19.577-43.369-43.369a43.389 43.389 0 0 1 13.95-31.865l165.39-165.389-165.39-165.306a43.387 43.387 0 0 1-13.95-31.865c0-23.791 19.577-43.368 43.369-43.368a43.39 43.39 0 0 1 31.845 13.928L400 347.832l165.389-165.39a43.382 43.382 0 0 1 29.419-11.503c23.791 0 43.368 19.577 43.368 43.368a43.38 43.38 0 0 1-11.523 29.44l-165.39 165.348 165.39 165.389Z" style="fill:#eb4888;fill-rule:nonzero" transform="matrix(.07937 0 0 .07898 1089.35 406.615)"/>
    <path d="M626.653 574.484a43.384 43.384 0 0 1 11.523 29.44c0 23.792-19.577 43.369-43.368 43.369-10.9 0-21.41-4.11-29.419-11.504L400 470.4 234.611 635.789a43.387 43.387 0 0 1-31.845 13.929c-23.792 0-43.369-19.577-43.369-43.369a43.389 43.389 0 0 1 13.95-31.865l165.39-165.389-165.39-165.306a43.387 43.387 0 0 1-13.95-31.865c0-23.791 19.577-43.368 43.369-43.368a43.39 43.39 0 0 1 31.845 13.928L400 347.832l165.389-165.39a43.382 43.382 0 0 1 29.419-11.503c23.791 0 43.368 19.577 43.368 43.368a43.38 43.38 0 0 1-11.523 29.44l-165.39 165.348 165.39 165.389Z" style="fill:#24d05a;fill-rule:nonzero" transform="matrix(.07937 0 0 .07898 929.352 406.615)"/>
    <path d="M626.653 574.484a43.384 43.384 0 0 1 11.523 29.44c0 23.792-19.577 43.369-43.368 43.369-10.9 0-21.41-4.11-29.419-11.504L400 470.4 234.611 635.789a43.387 43.387 0 0 1-31.845 13.929c-23.792 0-43.369-19.577-43.369-43.369a43.389 43.389 0 0 1 13.95-31.865l165.39-165.389-165.39-165.306a43.387 43.387 0 0 1-13.95-31.865c0-23.791 19.577-43.368 43.369-43.368a43.39 43.39 0 0 1 31.845 13.928L400 347.832l165.389-165.39a43.382 43.382 0 0 1 29.419-11.503c23.791 0 43.368 19.577 43.368 43.368a43.38 43.38 0 0 1-11.523 29.44l-165.39 165.348 165.39 165.389Z" style="fill:#eaeef9;fill-rule:nonzero" transform="matrix(.07937 0 0 .07898 769.352 406.615)"/>
    <path d="M626.653 574.484a43.384 43.384 0 0 1 11.523 29.44c0 23.792-19.577 43.369-43.368 43.369-10.9 0-21.41-4.11-29.419-11.504L400 470.4 234.611 635.789a43.387 43.387 0 0 1-31.845 13.929c-23.792 0-43.369-19.577-43.369-43.369a43.389 43.389 0 0 1 13.95-31.865l165.39-165.389-165.39-165.306a43.387 43.387 0 0 1-13.95-31.865c0-23.791 19.577-43.368 43.369-43.368a43.39 43.39 0 0 1 31.845 13.928L400 347.832l165.389-165.39a43.382 43.382 0 0 1 29.419-11.503c23.791 0 43.368 19.577 43.368 43.368a43.38 43.38 0 0 1-11.523 29.44l-165.39 165.348 165.39 165.389Z" style="fill:#24d05a;fill-rule:nonzero" transform="matrix(.07937 0 0 .07898 1169.35 486.615)"/>
    <path d="M626.653 574.484a43.384 43.384 0 0 1 11.523 29.44c0 23.792-19.577 43.369-43.368 43.369-10.9 0-21.41-4.11-29.419-11.504L400 470.4 234.611 635.789a43.387 43.387 0 0 1-31.845 13.929c-23.792 0-43.369-19.577-43.369-43.369a43.389 43.389 0 0 1 13.95-31.865l165.39-165.389-165.39-165.306a43.387 43.387 0 0 1-13.95-31.865c0-23.791 19.577-43.368 43.369-43.368a43.39 43.39 0 0 1 31.845 13.928L400 347.832l165.389-165.39a43.382 43.382 0 0 1 29.419-11.503c23.791 0 43.368 19.577 43.368 43.368a43.38 43.38 0 0 1-11.523 29.44l-165.39 165.348 165.39 165.389Z" style="fill:#eaeef9;fill-rule:nonzero" transform="matrix(.07937 0 0 .07898 1009.35 486.615)"/>
    <path d="M626.653 574.484a43.384 43.384 0 0 1 11.523 29.44c0 23.792-19.577 43.369-43.368 43.369-10.9 0-21.41-4.11-29.419-11.504L400 470.4 234.611 635.789a43.387 43.387 0 0 1-31.845 13.929c-23.792 0-43.369-19.577-43.369-43.369a43.389 43.389 0 0 1 13.95-31.865l165.39-165.389-165.39-165.306a43.387 43.387 0 0 1-13.95-31.865c0-23.791 19.577-43.368 43.369-43.368a43.39 43.39 0 0 1 31.845 13.928L400 347.832l165.389-165.39a43.382 43.382 0 0 1 29.419-11.503c23.791 0 43.368 19.577 43.368 43.368a43.38 43.38 0 0 1-11.523 29.44l-165.39 165.348 165.39 165.389Z" style="fill:#10a2f5;fill-rule:nonzero" transform="matrix(.07937 0 0 .07898 849.352 486.615)"/>
    <path d="M626.653 574.484a43.384 43.384 0 0 1 11.523 29.44c0 23.792-19.577 43.369-43.368 43.369-10.9 0-21.41-4.11-29.419-11.504L400 470.4 234.611 635.789a43.387 43.387 0 0 1-31.845 13.929c-23.792 0-43.369-19.577-43.369-43.369a43.389 43.389 0 0 1 13.95-31.865l165.39-165.389-165.39-165.306a43.387 43.387 0 0 1-13.95-31.865c0-23.791 19.577-43.368 43.369-43.368a43.39 43.39 0 0 1 31.845 13.928L400 347.832l165.389-165.39a43.382 43.382 0 0 1 29.419-11.503c23.791 0 43.368 19.577 43.368 43.368a43.38 43.38 0 0 1-11.523 29.44l-165.39 165.348 165.39 165.389Z" style="fill:#96979c;fill-rule:nonzero" transform="matrix(.07937 0 0 .07898 689.352 486.615)"/>
    <path d="M626.653 574.484a43.384 43.384 0 0 1 11.523 29.44c0 23.792-19.577 43.369-43.368 43.369-10.9 0-21.41-4.11-29.419-11.504L400 470.4 234.611 635.789a43.387 43.387 0 0 1-31.845 13.929c-23.792 0-43.369-19.577-43.369-43.369a43.389 43.389 0 0 1 13.95-31.865l165.39-165.389-165.39-165.306a43.387 43.387 0 0 1-13.95-31.865c0-23.791 19.577-43.368 43.369-43.368a43.39 43.39 0 0 1 31.845 13.928L400 347.832l165.389-165.39a43.382 43.382 0 0 1 29.419-11.503c23.791 0 43.368 19.577 43.368 43.368a43.38 43.38 0 0 1-11.523 29.44l-165.39 165.348 165.39 165.389Z" style="fill:#e9bc3f;fill-rule:nonzero" transform="matrix(.07937 0 0 .07898 529.352 486.615)"/>
    <path d="M626.653 574.484a43.384 43.384 0 0 1 11.523 29.44c0 23.792-19.577 43.369-43.368 43.369-10.9 0-21.41-4.11-29.419-11.504L400 470.4 234.611 635.789a43.387 43.387 0 0 1-31.845 13.929c-23.792 0-43.369-19.577-43.369-43.369a43.389 43.389 0 0 1 13.95-31.865l165.39-165.389-165.39-165.306a43.387 43.387 0 0 1-13.95-31.865c0-23.791 19.577-43.368 43.369-43.368a43.39 43.39 0 0 1 31.845 13.928L400 347.832l165.389-165.39a43.382 43.382 0 0 1 29.419-11.503c23.791 0 43.368 19.577 43.368 43.368a43.38 43.38 0 0 1-11.523 29.44l-165.39 165.348 165.39 165.389Z" style="fill:#eb4888;fill-rule:nonzero" transform="matrix(.07937 0 0 .07898 369.352 486.615)"/>
    <path d="M626.653 574.484a43.384 43.384 0 0 1 11.523 29.44c0 23.792-19.577 43.369-43.368 43.369-10.9 0-21.41-4.11-29.419-11.504L400 470.4 234.611 635.789a43.387 43.387 0 0 1-31.845 13.929c-23.792 0-43.369-19.577-43.369-43.369a43.389 43.389 0 0 1 13.95-31.865l165.39-165.389-165.39-165.306a43.387 43.387 0 0 1-13.95-31.865c0-23.791 19.577-43.368 43.369-43.368a43.39 43.39 0 0 1 31.845 13.928L400 347.832l165.389-165.39a43.382 43.382 0 0 1 29.419-11.503c23.791 0 43.368 19.577 43.368 43.368a43.38 43.38 0 0 1-11.523 29.44l-165.39 165.348 165.39 165.389Z" style="fill:#10a2f5;fill-rule:nonzero" transform="matrix(.07937 0 0 .07898 289.352 566.615)"/>
    <path d="M626.653 574.484a43.384 43.384 0 0 1 11.523 29.44c0 23.792-19.577 43.369-43.368 43.369-10.9 0-21.41-4.11-29.419-11.504L400 470.4 234.611 635.789a43.387 43.387 0 0 1-31.845 13.929c-23.792 0-43.369-19.577-43.369-43.369a43.389 43.389 0 0 1 13.95-31.865l165.39-165.389-165.39-165.306a43.387 43.387 0 0 1-13.95-31.865c0-23.791 19.577-43.368 43.369-43.368a43.39 43.39 0 0 1 31.845 13.928L400 347.832l165.389-165.39a43.382 43.382 0 0 1 29.419-11.503c23.791 0 43.368 19.577 43.368 43.368a43.38 43.38 0 0 1-11.523 29.44l-165.39 165.348 165.39 165.389Z" style="fill:#96979c;fill-rule:nonzero" transform="matrix(.07937 0 0 .07898 1089.35 566.615)"/>
    <path d="M626.653 574.484a43.384 43.384 0 0 1 11.523 29.44c0 23.792-19.577 43.369-43.368 43.369-10.9 0-21.41-4.11-29.419-11.504L400 470.4 234.611 635.789a43.387 43.387 0 0 1-31.845 13.929c-23.792 0-43.369-19.577-43.369-43.369a43.389 43.389 0 0 1 13.95-31.865l165.39-165.389-165.39-165.306a43.387 43.387 0 0 1-13.95-31.865c0-23.791 19.577-43.368 43.369-43.368a43.39 43.39 0 0 1 31.845 13.928L400 347.832l165.389-165.39a43.382 43.382 0 0 1 29.419-11.503c23.791 0 43.368 19.577 43.368 43.368a43.38 43.38 0 0 1-11.523 29.44l-165.39 165.348 165.39 165.389Z" style="fill:#e9bc3f;fill-rule:nonzero" transform="matrix(.07937 0 0 .07898 929.352 566.615)"/>
    <path d="M626.653 574.484a43.384 43.384 0 0 1 11.523 29.44c0 23.792-19.577 43.369-43.368 43.369-10.9 0-21.41-4.11-29.419-11.504L400 470.4 234.611 635.789a43.387 43.387 0 0 1-31.845 13.929c-23.792 0-43.369-19.577-43.369-43.369a43.389 43.389 0 0 1 13.95-31.865l165.39-165.389-165.39-165.306a43.387 43.387 0 0 1-13.95-31.865c0-23.791 19.577-43.368 43.369-43.368a43.39 43.39 0 0 1 31.845 13.928L400 347.832l165.389-165.39a43.382 43.382 0 0 1 29.419-11.503c23.791 0 43.368 19.577 43.368 43.368a43.38 43.38 0 0 1-11.523 29.44l-165.39 165.348 165.39 165.389Z" style="fill:#eb4888;fill-rule:nonzero" transform="matrix(.07937 0 0 .07898 769.352 566.615)"/>
    <path d="M626.653 574.484a43.384 43.384 0 0 1 11.523 29.44c0 23.792-19.577 43.369-43.368 43.369-10.9 0-21.41-4.11-29.419-11.504L400 470.4 234.611 635.789a43.387 43.387 0 0 1-31.845 13.929c-23.792 0-43.369-19.577-43.369-43.369a43.389 43.389 0 0 1 13.95-31.865l165.39-165.389-165.39-165.306a43.387 43.387 0 0 1-13.95-31.865c0-23.791 19.577-43.368 43.369-43.368a43.39 43.39 0 0 1 31.845 13.928L400 347.832l165.389-165.39a43.382 43.382 0 0 1 29.419-11.503c23.791 0 43.368 19.577 43.368 43.368a43.38 43.38 0 0 1-11.523 29.44l-165.39 165.348 165.39 165.389Z" style="fill:#24d05a;fill-rule:nonzero" transform="matrix(.07937 0 0 .07898 609.352 566.615)"/>
    <path d="M626.653 574.484a43.384 43.384 0 0 1 11.523 29.44c0 23.792-19.577 43.369-43.368 43.369-10.9 0-21.41-4.11-29.419-11.504L400 470.4 234.611 635.789a43.387 43.387 0 0 1-31.845 13.929c-23.792 0-43.369-19.577-43.369-43.369a43.389 43.389 0 0 1 13.95-31.865l165.39-165.389-165.39-165.306a43.387 43.387 0 0 1-13.95-31.865c0-23.791 19.577-43.368 43.369-43.368a43.39 43.39 0 0 1 31.845 13.928L400 347.832l165.389-165.39a43.382 43.382 0 0 1 29.419-11.503c23.791 0 43.368 19.577 43.368 43.368a43.38 43.38 0 0 1-11.523 29.44l-165.39 165.348 165.39 165.389Z" style="fill:#eaeef9;fill-rule:nonzero" transform="matrix(.07937 0 0 .07898 449.352 566.615)"/>
    <path d="M626.653 574.484a43.384 43.384 0 0 1 11.523 29.44c0 23.792-19.577 43.369-43.368 43.369-10.9 0-21.41-4.11-29.419-11.504L400 470.4 234.611 635.789a43.387 43.387 0 0 1-31.845 13.929c-23.792 0-43.369-19.577-43.369-43.369a43.389 43.389 0 0 1 13.95-31.865l165.39-165.389-165.39-165.306a43.387 43.387 0 0 1-13.95-31.865c0-23.791 19.577-43.368 43.369-43.368a43.39 43.39 0 0 1 31.845 13.928L400 347.832l165.389-165.39a43.382 43.382 0 0 1 29.419-11.503c23.791 0 43.368 19.577 43.368 43.368a43.38 43.38 0 0 1-11.523 29.44l-165.39 165.348 165.39 165.389Z" style="fill:#10a2f5;fill-rule:nonzero" transform="matrix(.07937 0 0 .07898 209.352 326.615)"/>
    <path d="M626.653 574.484a43.384 43.384 0 0 1 11.523 29.44c0 23.792-19.577 43.369-43.368 43.369-10.9 0-21.41-4.11-29.419-11.504L400 470.4 234.611 635.789a43.387 43.387 0 0 1-31.845 13.929c-23.792 0-43.369-19.577-43.369-43.369a43.389 43.389 0 0 1 13.95-31.865l165.39-165.389-165.39-165.306a43.387 43.387 0 0 1-13.95-31.865c0-23.791 19.577-43.368 43.369-43.368a43.39 43.39 0 0 1 31.845 13.928L400 347.832l165.389-165.39a43.382 43.382 0 0 1 29.419-11.503c23.791 0 43.368 19.577 43.368 43.368a43.38 43.38 0 0 1-11.523 29.44l-165.39 165.348 165.39 165.389Z" style="fill:#96979c;fill-rule:nonzero" transform="matrix(.07937 0 0 .07898 49.352 326.615)"/>
    <path d="M626.653 574.484a43.384 43.384 0 0 1 11.523 29.44c0 23.792-19.577 43.369-43.368 43.369-10.9 0-21.41-4.11-29.419-11.504L400 470.4 234.611 635.789a43.387 43.387 0 0 1-31.845 13.929c-23.792 0-43.369-19.577-43.369-43.369a43.389 43.389 0 0 1 13.95-31.865l165.39-165.389-165.39-165.306a43.387 43.387 0 0 1-13.95-31.865c0-23.791 19.577-43.368 43.369-43.368a43.39 43.39 0 0 1 31.845 13.928L400 347.832l165.389-165.39a43.382 43.382 0 0 1 29.419-11.503c23.791 0 43.368 19.577 43.368 43.368a43.38 43.38 0 0 1-11.523 29.44l-165.39 165.348 165.39 165.389Z" style="fill:#eb4888;fill-rule:nonzero" transform="matrix(.07937 0 0 .07898 129.352 406.615)"/>
    <path d="M626.653 574.484a43.384 43.384 0 0 1 11.523 29.44c0 23.792-19.577 43.369-43.368 43.369-10.9 0-21.41-4.11-29.419-11.504L400 470.4 234.611 635.789a43.387 43.387 0 0 1-31.845 13.929c-23.792 0-43.369-19.577-43.369-43.369a43.389 43.389 0 0 1 13.95-31.865l165.39-165.389-165.39-165.306a43.387 43.387 0 0 1-13.95-31.865c0-23.791 19.577-43.368 43.369-43.368a43.39 43.39 0 0 1 31.845 13.928L400 347.832l165.389-165.39a43.382 43.382 0 0 1 29.419-11.503c23.791 0 43.368 19.577 43.368 43.368a43.38 43.38 0 0 1-11.523 29.44l-165.39 165.348 165.39 165.389Z" style="fill:#24d05a;fill-rule:nonzero" transform="matrix(.07937 0 0 .07898 -30.648 406.615)"/>
    <path d="M626.653 574.484a43.384 43.384 0 0 1 11.523 29.44c0 23.792-19.577 43.369-43.368 43.369-10.9 0-21.41-4.11-29.419-11.504L400 470.4 234.611 635.789a43.387 43.387 0 0 1-31.845 13.929c-23.792 0-43.369-19.577-43.369-43.369a43.389 43.389 0 0 1 13.95-31.865l165.39-165.389-165.39-165.306a43.387 43.387 0 0 1-13.95-31.865c0-23.791 19.577-43.368 43.369-43.368a43.39 43.39 0 0 1 31.845 13.928L400 347.832l165.389-165.39a43.382 43.382 0 0 1 29.419-11.503c23.791 0 43.368 19.577 43.368 43.368a43.38 43.38 0 0 1-11.523 29.44l-165.39 165.348 165.39 165.389Z" style="fill:#24d05a;fill-rule:nonzero" transform="matrix(.07937 0 0 .07898 209.352 486.615)"/>
    <path d="M626.653 574.484a43.384 43.384 0 0 1 11.523 29.44c0 23.792-19.577 43.369-43.368 43.369-10.9 0-21.41-4.11-29.419-11.504L400 470.4 234.611 635.789a43.387 43.387 0 0 1-31.845 13.929c-23.792 0-43.369-19.577-43.369-43.369a43.389 43.389 0 0 1 13.95-31.865l165.39-165.389-165.39-165.306a43.387 43.387 0 0 1-13.95-31.865c0-23.791 19.577-43.368 43.369-43.368a43.39 43.39 0 0 1 31.845 13.928L400 347.832l165.389-165.39a43.382 43.382 0 0 1 29.419-11.503c23.791 0 43.368 19.577 43.368 43.368a43.38 43.38 0 0 1-11.523 29.44l-165.39 165.348 165.39 165.389Z" style="fill:#eaeef9;fill-rule:nonzero" transform="matrix(.07937 0 0 .07898 49.352 486.615)"/>
    <path d="M626.653 574.484a43.384 43.384 0 0 1 11.523 29.44c0 23.792-19.577 43.369-43.368 43.369-10.9 0-21.41-4.11-29.419-11.504L400 470.4 234.611 635.789a43.387 43.387 0 0 1-31.845 13.929c-23.792 0-43.369-19.577-43.369-43.369a43.389 43.389 0 0 1 13.95-31.865l165.39-165.389-165.39-165.306a43.387 43.387 0 0 1-13.95-31.865c0-23.791 19.577-43.368 43.369-43.368a43.39 43.39 0 0 1 31.845 13.928L400 347.832l165.389-165.39a43.382 43.382 0 0 1 29.419-11.503c23.791 0 43.368 19.577 43.368 43.368a43.38 43.38 0 0 1-11.523 29.44l-165.39 165.348 165.39 165.389Z" style="fill:#96979c;fill-rule:nonzero" transform="matrix(.07937 0 0 .07898 129.352 566.615)"/>
    <path d="M626.653 574.484a43.384 43.384 0 0 1 11.523 29.44c0 23.792-19.577 43.369-43.368 43.369-10.9 0-21.41-4.11-29.419-11.504L400 470.4 234.611 635.789a43.387 43.387 0 0 1-31.845 13.929c-23.792 0-43.369-19.577-43.369-43.369a43.389 43.389 0 0 1 13.95-31.865l165.39-165.389-165.39-165.306a43.387 43.387 0 0 1-13.95-31.865c0-23.791 19.577-43.368 43.369-43.368a43.39 43.39 0 0 1 31.845 13.928L400 347.832l165.389-165.39a43.382 43.382 0 0 1 29.419-11.503c23.791 0 43.368 19.577 43.368 43.368a43.38 43.38 0 0 1-11.523 29.44l-165.39 165.348 165.39 165.389Z" style="fill:#e9bc3f;fill-rule:nonzero" transform="matrix(.07937 0 0 .07898 -30.648 566.615)"/>
</svg>
